<svg width="291" height="136" xmlns="http://www.w3.org/2000/svg"><path d="M19.694 31.218c8.643 0 11.524-5.289 11.524-9.589 0-3.612-3.053-5.891-4.816-6.579-.43-.215-.903-.387-.903-.946 0-.559.387-.817.774-1.161 1.548-1.247 2.365-3.354 2.365-5.332 0-3.311-2.021-7.052-9.89-7.052-.989 0-2.021.086-3.01.129-.989.086-1.978.172-3.01.172-1.591 0-3.182-.086-4.773-.172C6.364.645 4.773.559 3.182.559 1.849.559.086 1.333.086 2.967c0 2.967 3.698 0 3.44 6.493l-.473 12.384C2.795 28.982 0 26.273 0 28.939c0 1.505 1.505 2.279 2.838 2.279 1.505 0 2.967-.043 4.429-.129 1.462-.043 2.967-.086 4.429-.086 1.333 0 2.623.043 3.913.086 1.29.086 2.623.129 4.085.129Zm-4.687-17.673c-1.23 0-1.252-.696-1.248-2.122l.001-3.855c0-1.247-.172-2.537 1.419-2.537 2.365 0 3.01 2.408 3.01 4.343 0 2.365-.602 4.171-3.182 4.171Zm.903 13.115c-1.333 0-2.15-.129-2.15-5.117v-2.15c.043-.903.344-1.591 1.677-1.591 3.01 0 3.784 2.322 3.784 4.945 0 2.236-.86 3.913-3.311 3.913Zm43.86 5.203c4.859 0 6.837-1.72 6.837-3.354 0-2.623-2.795-.215-3.311-4.214-.602-4.644-1.935-6.622-4.945-7.74-.516-.215-1.075-.387-1.075-1.032 0-.516.301-.645.688-.86 2.408-1.161 3.655-3.655 3.655-6.235 0-5.719-5.633-7.869-10.492-7.869-1.376 0-2.795.086-4.171.129-1.419.086-2.795.172-4.171.172-.86 0-1.763-.086-2.623-.172-.903-.043-1.763-.129-2.666-.129-1.72 0-5.074.301-5.074 2.666 0 2.666 3.268-.086 3.268 6.579v12.255c0 5.59-3.225 4.042-3.225 6.278 0 2.95 5.395 3.128 7.757 3.138l.413.001c6.966 0 8.041-1.161 8.041-2.709 0-2.064-2.193-1.462-2.537-3.44-.215-1.204-.301-2.924-.301-4.171 0-2.709.344-2.838 1.29-2.838 2.365 0 3.096 1.935 3.569 3.913 1.333 5.676 2.193 9.632 9.073 9.632ZM46.784 13.76c-1.419 0-1.204-.946-1.118-2.064l.172-4.085c.086-1.333.043-2.322 1.634-2.322 2.494 0 3.01 2.15 3.01 4.257 0 2.666-.903 4.214-3.698 4.214Zm37.281 17.845c8.772 0 16.942-6.106 16.942-15.351 0-5.547-4.558-15.996-16.426-15.996-9.374 0-16.641 6.45-16.641 15.566 0 9.159 7.052 15.781 16.125 15.781Zm2.15-6.407c-4.644 0-7.224-10.277-7.224-13.932 0-2.107 1.204-4.601 3.612-4.601 5.031 0 7.353 10.019 7.353 13.932 0 2.322-1.118 4.601-3.741 4.601Zm33.024 6.407c8.772 0 16.942-6.106 16.942-15.351 0-5.547-4.558-15.996-16.426-15.996-9.374 0-16.641 6.45-16.641 15.566 0 9.159 7.052 15.781 16.125 15.781Zm2.15-6.407c-4.644 0-7.224-10.277-7.224-13.932 0-2.107 1.204-4.601 3.612-4.601 5.031 0 7.353 10.019 7.353 13.932 0 2.322-1.118 4.601-3.741 4.601Zm24.295 6.278c7.568 0 8.557-1.29 8.557-2.666 0-.966-.57-1.525-1.186-2.046l-.337-.283c-.617-.52-1.186-1.068-1.186-2.014v-.903c0-1.247.172-2.365 1.29-2.365.989 0 3.526 3.139 4.257 3.999l2.924 3.569c1.66 2.034 1.758 2.225 3.272 2.235l7.478.001c1.677 0 3.87-.215 3.87-2.365 0-2.623-2.623-2.451-3.913-3.913l-8.987-10.277c-.688-.817-1.72-1.849-1.72-3.01 0-1.806 3.655-4.429 4.515-5.289.564-.564 1.546-.62 2.553-.657l.335-.012c1.567-.058 3.089-.198 3.089-2.255 0-2.923-4.573-2.85-6.773-2.839h-1.183c-2.465.01-6.836.219-6.836 3.011 0 .946.688 1.376.688 2.279 0 .989-3.397 5.418-4.558 5.418-.774 0-.817-1.247-.817-1.806 0-5.074 2.365-3.698 2.365-5.977 0-2.967-4.472-2.924-6.493-2.924-9.417 0-9.03 2.408-9.03 3.096 0 2.623 2.279 1.032 2.838 4.73.394 2.186.43 4.7.431 7.02l-.001 1.365c0 2.451-.043 5.203-.43 7.611-.516 3.569-2.666 2.408-2.666 4.644 0 1.462.86 2.623 7.654 2.623Zm53.449.129c1.978 0 4.386-4.3 4.386-7.654 0-1.634-.731-3.698-2.666-3.698-2.752 0-.258 5.977-7.568 5.977-3.053 0-3.569-1.505-3.569-4.601V7.955c0-4.042 3.397-2.15 3.397-4.644l-.001-.133c-.033-1.416-.69-2.791-9.029-2.791-2.107 0-8.858.172-8.858 3.311 0 2.451 3.784.559 3.87 4.171.086 2.408.301 4.816.301 7.396 0 2.537 0 5.289-.086 8.428-.071 2.748-1.121 3.304-2.05 3.694l-.204.085c-.67.28-1.229.55-1.229 1.639 0 1.793 1.801 1.89 3.163 1.892h14.768c1.462 0 2.408.129 3.225.301.774.129 1.376.301 2.15.301Zm12.384-.129c9.02 0 9.755-1.775 9.801-3.058l.003-.112v-.055c0-1.333-1.032-1.548-2.107-2.193l-.042-.025-.082-.047-.08-.046-.078-.045c-.677-.409-1.079-1.036-1.094-7.465v-5.22c.009-2.904.096-6.348.86-7.233.989-1.118 2.623-1.032 2.623-2.58 0-2.924-5.289-3.01-7.869-3.01h-.214c-1.594.01-9.418.172-9.418 3.096 0 1.634 1.677 1.763 2.666 3.01.473.602.903 1.849.903 7.31v4.257c0 6.02-.43 7.611-.946 8.213-.197.233-.456.418-.727.594l-.408.263c-.538.358-1.015.765-1.015 1.551 0 2.632 4.957 2.786 6.969 2.795h.255Zm24.811-3.139c0-2.107-2.279-1.075-2.924-3.827-.258-1.118-.301-2.709-.301-3.913 0-.903.043-3.698 1.376-3.698.903 0 2.021 1.032 2.623 1.591l13.287 11.911c.645.559 1.376 1.075 2.236 1.075 2.4 0 2.622-4.091 2.629-6.574v-.36l-.006-.766V12.513c0-1.634 0-4.3.559-5.848.731-1.978 3.01-1.075 3.01-3.526 0-2.838-4.288-2.765-6.317-2.753h-.967c-2.041.009-5.487.185-5.487 2.624 0 2.322 2.279 1.677 2.881 3.483.344.989.387 2.838.387 3.913 0 .731-.043 2.494-1.118 2.494-.774 0-2.15-1.247-2.666-1.677l-10.191-8.944c-1.935-1.72-2.408-1.892-5.074-1.892h-.256l-.14-.001h-.471c-2.403.007-6.873.203-6.873 2.882 0 2.58 3.096.903 3.784 5.203.473 3.096.473 6.235.473 9.331 0 1.935-.086 4.644-.387 6.493-.43 2.752-2.924 1.849-2.924 4.128 0 2.731 4.23 3.04 6.268 3.053h.139c2.021 0 6.45-.258 6.45-3.139Zm50.009 3.139c1.72 0 4.042-5.246 4.042-8.17 0-1.204-.688-2.752-2.064-2.752-3.526 0-1.032 6.063-9.847 6.063-4.515 0-4.945.301-4.945-5.977 0-1.376-.043-3.01 1.763-3.01 4.343 0 1.677 4.515 4.343 4.515 2.58 0 2.881-5.16 2.881-6.923 0-1.677-.172-6.536-2.666-6.536-1.415 0-1.648 1.025-1.815 2.125l-.052.349c-.176 1.163-.409 2.299-2.003 2.299-2.623 0-2.752-.086-2.752-2.58 0-.767-.011-1.436-.013-2.019l.001-.376c.021-2.845.444-3.41 4.312-3.41 8.17 0 5.418 4.128 8.815 4.128 1.677 0 2.236-1.677 2.236-3.096 0-1.892-1.032-6.106-3.483-6.106-.688 0-1.505.86-7.267.86h-12.384c-1.763 0-5.375-.43-5.375 2.193 0 3.053 3.268-.344 3.569 6.235.43 7.783.387 7.009-.129 14.835-.301 4.558-3.225 2.666-3.225 5.031 0 .559.043 1.849 2.881 1.849h17.673c1.462 0 2.666.129 3.612.215.903.129 1.591.258 1.892.258ZM40.648 88.729c2.64 0 6.204-8.052 6.204-12.54 0-1.848-1.056-4.224-3.168-4.224-5.412 0-1.584 9.306-15.114 9.306-.483 0-.936.002-1.36.003h-.616c-5.085-.017-5.614-.55-5.614-9.177v-.328l.003-.498c.027-1.888.286-3.794 2.703-3.794 6.666 0 2.574 6.93 6.666 6.93 3.96 0 4.422-7.92 4.422-10.626 0-2.574-.264-10.032-4.092-10.032-4.686 0-.924 7.326-5.94 7.326h-.448c-3.593-.016-3.776-.28-3.776-3.96 0-1.183-.018-2.213-.02-3.11v-.438c.022-4.478.626-5.362 6.62-5.362 12.54 0 8.316 6.336 13.53 6.336 2.574 0 3.432-2.574 3.432-4.752 0-2.904-1.584-9.372-5.346-9.372-1.056 0-2.31 1.32-11.154 1.32H8.572c-2.706 0-8.25-.66-8.25 3.366 0 1.898.823 2.172 1.833 2.497l.191.062c1.45.475 3.19 1.259 3.454 7.011.66 11.946.594 10.758-.198 22.77-.462 6.996-4.95 4.092-4.95 7.722v.118c.014.908.255 2.72 4.422 2.72H32.2c2.244 0 4.092.198 5.544.33 1.386.198 2.442.396 2.904.396Zm44.154 11.616c10.824 0 15.114-5.874 15.114-7.92 0-.858-.726-2.574-1.716-2.574-.528 0-2.574 1.188-5.214 1.188-7.656 0-9.9-1.98-9.9-3.036 0-.396.528-.792.858-.924 9.636-3.894 15.708-11.352 15.708-21.714 0-8.514-6.996-24.552-25.212-24.552-14.388 0-25.542 9.9-25.542 23.892 0 13.266 8.382 17.622 8.382 19.074 0 .528-.594.66-.99.66-.462 0-.924-.066-1.386-.066-2.508 0-5.214 1.518-5.214 4.29 0 .924.462 1.914 1.518 1.914.594 0 1.122-.132 1.65-.132 2.97 0 5.28 1.254 10.956 3.564l10.164 4.158c3.828 1.386 6.732 2.178 10.824 2.178Zm-7.854-21.252c-7.128 0-11.088-15.774-11.088-21.384 0-3.234 1.848-7.062 5.544-7.062 7.722 0 11.286 15.378 11.286 21.384 0 3.564-1.716 7.062-5.742 7.062Zm52.8 9.834c22.15 0 22.753-14.904 22.77-18.509V52.297c0-6.006 4.95-3.762 4.95-7.458 0-3.623-6.503-3.817-9.326-3.827l-.303-.001h-.957c-3.172.01-9.544.227-9.544 3.96 0 3.828 5.676 1.122 5.676 8.184v16.498c.016 1.064.217 9.308-9.966 9.308-6.996 0-9.966-5.016-9.966-12.87V53.947c.183-4.46 1.742-5.093 3.097-5.577l.224-.08c.996-.36 1.827-.751 1.827-2.725 0-2.574-2.178-4.554-12.936-4.554-11.897 0-12.828 2.83-12.875 4.156l-.002.092v.087c.002.112.007.208.007.285 0 3.036 4.488 3.036 4.224 7.194v15.246c0 .792-2.904 20.856 23.1 20.856Zm56.41-4.64.01-.13.006-.128c.003-.085.004-.168.004-.25 0-2.046-1.584-2.376-3.234-3.366a6.793 6.793 0 0 0-.092-.054l-.09-.052-.045-.025-.088-.05-.086-.05a4.161 4.161 0 0 1-.084-.052l-.123-.08c-.938-.659-1.488-2.06-1.504-11.503V60.95c.009-4.51.124-9.975 1.32-11.359 1.518-1.716 4.026-1.584 4.026-3.96 0-4.488-8.118-4.62-12.078-4.62h-.248c-2.25.01-14.536.213-14.536 4.752 0 2.508 2.574 2.706 4.092 4.62.726.924 1.386 2.838 1.386 11.22v6.534c0 9.24-.66 11.682-1.452 12.606-.34.403-.802.71-1.273 1.013l-.314.201c-.886.574-1.713 1.2-1.713 2.482 0 4.08 7.762 4.28 10.788 4.29h.3c13.262 0 14.856-2.5 15.028-4.442Zm25.628 4.442c11.916 0 13.496-2.707 13.591-4.735l.004-.144.001-.071c0-4.62-6.072-.858-6.072-8.712V54.805c0-.528-.264-4.092 2.31-4.092 3.366 0 3.3 7.788 9.042 7.788 3.366 0 5.082-2.178 5.082-5.478 0-7.128-5.346-12.21-7.92-12.21-1.254 0-1.782.198-2.706.462-.99.198-2.31.462-5.148.462h-16.236c-2.64 0-4.422-.264-5.676-.462-1.254-.264-1.98-.462-2.442-.462-3.762 0-8.514 7.326-8.514 12.936 0 2.376 1.518 4.752 4.092 4.752 5.346 0 6.798-7.788 9.768-7.788h.142l.097.003c.905.035 2.049.508 1.807 6.861l-.528 14.586c-.066 1.65-.33 5.61-.99 6.996-.522.992-1.477 1.374-2.441 1.691l-.34.11c-1.356.436-2.631.867-2.631 2.819 0 4.724 10.665 4.943 14.87 4.95h.838Zm64.086-4.752c0-3.102-3.498-2.706-4.422-4.62-.58-1.225-.909-3.775-.923-9.557l-.001-.409c0-4.62.198-6.6 3.102-10.23l8.118-8.91c3.3-3.564 8.052-1.122 8.052-5.346 0-2.904-2.178-3.894-10.428-3.894h-.445c-2.861.011-9.719.209-9.719 3.894 0 2.508 1.914 2.64 1.914 4.488 0 1.518-2.772 5.016-4.488 5.016-1.65 0-4.29-4.158-4.29-5.61 0-1.386 1.848-2.046 1.848-3.762V44.799c-.024-1.478-.59-3.788-13.596-3.788-13.379 0-14.768 2.248-14.904 3.832l-.007.108-.004.106a3.7 3.7 0 0 0-.002.103V45.453l.001.046c0 3.234 4.29 2.178 7.524 5.94l7.458 8.646c2.31 2.97 2.904 4.224 2.904 7.986 0 6.402-.396 9.438-1.056 10.956-1.188 2.706-4.95 1.386-4.95 4.95 0 1.782 1.716 4.752 14.652 4.752h.492c3.682-.01 13.17-.22 13.17-4.752ZM17.871 135.64c5.369 0 8.554-2.639 10.101-2.639 2.275 0 4.368-4.186 4.368-6.188 0-1.138-.637-2.684-1.957-2.684-1.41 0-2.274 3.139-8.053 3.139-6.37 0-9.964-5.733-9.964-12.467 0-2.502 1.456-5.779 4.959-5.779 8.099 0 6.916 8.054 11.602 8.054 2.685 0 4.232-2.184 4.232-4.777 0-5.051-2.457-7.918-4.368-7.918-.774 0-1.047.319-2.047.319-1.183 0-4.05-2.23-8.509-2.23-8.963 0-17.745 7.144-17.745 16.472 0 9.145 7.826 16.698 17.381 16.698Zm34.08 0c9.282 0 17.926-6.461 17.926-16.243 0-5.87-4.822-16.927-17.38-16.927-9.92 0-17.609 6.826-17.609 16.472 0 9.691 7.462 16.698 17.063 16.698Zm2.274-6.78c-4.913 0-7.644-10.874-7.644-14.742 0-2.229 1.274-4.868 3.822-4.868 5.324 0 7.781 10.602 7.781 14.742 0 2.457-1.183 4.868-3.959 4.868Zm56.33 3.458c0-2.593-2.458-.5-3.959-3.958-1.638-3.731-8.508-17.654-9.282-18.974-1.774-3.002-4.277-7.052-8.235-7.052-4.05 0-5.506 2.366-5.506 5.505 0 3.595-1.865 7.599-3.276 10.739l-2.867 6.233c-.682 1.456-1.638 3.64-2.639 4.868-1.319 1.638-3.776 1.001-3.776 3.14 0 1.456.591 2.685 7.098 2.685 1.82 0 6.734-.046 6.734-2.776 0-2.366-2.912-1.183-2.912-2.958 0-2.229 1.41-2.32 3.776-2.32 7.326 0 8.463.182 8.463 2.23 0 1.592-2.775.773-2.775 2.957 0 2.717 3.629 2.86 9.707 2.866l.993.001h.483c2.694-.006 7.973-.183 7.973-3.185ZM84.8 121.216c0-.545.774-2.32.956-2.82l.025-.07.107-.322c.306-.913.998-2.839 1.916-2.839 1 0 1.774 1.683 2.183 2.411.365.638 1.684 3.004 1.684 3.686 0 .683-1.365.591-1.82.591h-3.413c-.5 0-1.637.137-1.637-.636Zm51.688 14.424c2.094 0 4.642-4.55 4.642-8.099 0-1.729-.774-3.913-2.821-3.913-2.912 0-.274 6.324-8.008 6.324-3.231 0-3.777-1.592-3.777-4.868v-14.469c0-4.277 3.594-2.275 3.594-4.914 0-.091-.001-.182-.006-.273l-.01-.135c-.131-1.4-1.241-2.686-9.539-2.686-2.229 0-9.372.182-9.372 3.504 0 2.593 4.004.591 4.095 4.413.09 2.548.318 5.096.318 7.826 0 2.684 0 5.597-.091 8.918-.136 5.278-3.685 2.912-3.685 5.733 0 1.903 1.917 2 3.36 2.003h.281l.135-.001h15.197c1.547 0 2.548.137 3.412.319.82.136 1.457.318 2.275.318Zm13.105-.136c9.425 0 10.301-1.833 10.368-3.186l.004-.115.001-.112c0-1.41-1.092-1.638-2.229-2.32-.057-.035-.112-.066-.166-.097l-.08-.045c-.748-.436-1.194-.963-1.21-7.948v-5.485c.009-3.078.1-6.736.91-7.674 1.046-1.183 2.775-1.092 2.775-2.73 0-3.094-5.596-3.185-8.326-3.185h-.221c-1.674.01-9.971.179-9.971 3.276 0 1.729 1.774 1.866 2.821 3.185.5.637.956 1.957.956 7.735v4.505c0 6.37-.456 8.053-1.001 8.69-.728.865-2.275 1.092-2.275 2.548 0 2.788 5.255 2.948 7.38 2.957h.263Zm28.028 0c8.508 0 9.372-2.002 9.372-3.413 0-3.185-4.185-.591-4.185-6.006v-13.968c0-.365-.183-2.822 1.592-2.822 2.32 0 2.275 5.37 6.233 5.37 2.321 0 3.504-1.502 3.504-3.777 0-4.914-3.686-8.418-5.46-8.418-.864 0-1.228.137-1.865.319-.683.136-1.593.319-3.55.319h-11.192c-1.82 0-3.049-.183-3.913-.319-.865-.182-1.365-.319-1.684-.319-2.593 0-5.87 5.051-5.87 8.918 0 1.638 1.047 3.276 2.821 3.276 3.686 0 4.687-5.368 6.734-5.368h.082l.084.001c.623.024 1.412.351 1.245 4.73l-.364 10.056c-.045 1.138-.227 3.868-.682 4.823-.37.702-1.055.962-1.738 1.184l-.314.101c-.883.288-1.68.619-1.68 1.9 0 3.196 7.082 3.4 10.086 3.412h.744Zm25.297 0c9.426 0 10.302-1.833 10.37-3.186l.003-.115.001-.112c0-1.41-1.091-1.638-2.229-2.32-.057-.035-.112-.066-.166-.097l-.08-.045c-.762-.443-1.21-.982-1.21-8.321v-4.505c0-3.185.046-7.28.91-8.281 1.047-1.183 2.775-1.092 2.775-2.73 0-3.094-5.596-3.185-8.326-3.185h-.221c-1.674.01-9.971.179-9.971 3.276 0 1.729 1.774 1.866 2.821 3.185.5.637.956 1.957.956 7.735v4.505c0 6.37-.456 8.053-1.001 8.69-.728.865-2.275 1.092-2.275 2.548 0 2.788 5.255 2.948 7.38 2.957h.263Zm29.166.136c9.282 0 17.927-6.461 17.927-16.243 0-5.87-4.823-16.927-17.381-16.927-9.919 0-17.608 6.826-17.608 16.472 0 9.691 7.462 16.698 17.062 16.698Zm2.275-6.78c-4.914 0-7.644-10.874-7.644-14.742 0-2.229 1.274-4.868 3.822-4.868 5.323 0 7.78 10.602 7.78 14.742 0 2.457-1.183 4.868-3.958 4.868Zm32.032 3.322c0-2.23-2.411-1.137-3.094-4.05-.273-1.183-.319-2.866-.319-4.14 0-.956.046-3.913 1.457-3.913.955 0 2.138 1.092 2.775 1.684l14.06 12.603c.682.591 1.455 1.137 2.365 1.137 3.049 0 2.776-6.233 2.776-8.28v-11.785c0-1.729 0-4.55.591-6.188.774-2.093 3.185-1.138 3.185-3.731 0-2.672-3.592-2.905-5.896-2.915h-.335l-.459.002h-.999c-2.157.008-5.824.188-5.824 2.776 0 1.31.686 1.728 1.423 2.122l.277.149c.555.301 1.094.65 1.349 1.415.336.966.4 2.707.408 3.864l.001.276c0 .774-.046 2.64-1.183 2.64-.819 0-2.275-1.32-2.821-1.775l-10.784-9.464c-2.047-1.82-2.548-2.002-5.369-2.002h-.259l-.142-.001h-.475c-2.531.005-7.314.2-7.314 3.05 0 2.73 3.276.955 4.005 5.505.5 3.276.5 6.597.5 9.873 0 2.048-.091 4.914-.41 6.871-.454 2.912-3.094 1.957-3.094 4.368 0 2.892 4.481 3.217 6.637 3.23h.143c2.138 0 6.825-.272 6.825-3.321Z" fill="#fff" fill-rule="nonzero"/></svg>